<?xml version="1.0" encoding="UTF-8"?>
<svg width="90px" height="64px" viewBox="0 0 90 64" version="1.1" xmlns="http://www.w3.org/2000/svg" xmlns:xlink="http://www.w3.org/1999/xlink">
    <!-- Generator: Sketch 45.2 (43514) - http://www.bohemiancoding.com/sketch -->
    <title>noun_859510_cc</title>
    <desc>Created with Sketch.</desc>
    <defs></defs>
    <g id="Page-1" stroke="none" stroke-width="1" fill="none" fill-rule="evenodd">
        <g id="noun_859510_cc" fill-rule="nonzero" fill="#ffffff">
            <g id="Group">
                <path d="M71.56,21.56 C70.809,21.56 70.089,21.135 69.748,20.41 C65.264,10.854 55.55,4.68 45,4.68 C34.461,4.68 24.751,10.845 20.263,20.386 C19.792,21.385 18.601,21.816 17.602,21.344 C16.603,20.874 16.173,19.683 16.644,18.683 C21.788,7.746 32.919,0.68 45,0.68 C57.094,0.68 68.229,7.757 73.369,18.71 C73.839,19.71 73.408,20.9 72.408,21.37 C72.134,21.499 71.845,21.56 71.56,21.56 Z" id="Shape"></path>
                <path d="M45,63.32 C28.954,63.32 15.566,51.305 13.859,35.373 C13.741,34.275 14.536,33.289 15.634,33.172 C16.729,33.055 17.718,33.849 17.835,34.947 C19.325,48.842 31.003,59.32 45,59.32 C58.872,59.32 70.538,48.946 72.137,35.19 C72.264,34.092 73.266,33.299 74.354,33.434 C75.452,33.561 76.238,34.554 76.11,35.651 C74.276,51.426 60.902,63.32 45,63.32 Z" id="Shape"></path>
                <path d="M35.927,30.444 C32.827,30.444 24.342,26.224 23.385,25.743 C23.087,25.594 22.883,25.305 22.842,24.973 C22.801,24.641 22.927,24.313 23.179,24.094 C23.465,23.845 30.259,18.003 35.927,18.003 C39.377,18.003 42.552,23.723 42.903,24.375 C43.08,24.704 43.058,25.104 42.847,25.413 C42.495,25.929 39.309,30.444 35.927,30.444 Z M25.692,24.646 C28.766,26.115 34.039,28.445 35.926,28.445 C37.655,28.445 39.822,26.094 40.833,24.781 C39.571,22.639 37.416,20.005 35.926,20.005 C32.284,20.004 27.801,23.044 25.692,24.646 Z" id="Shape"></path>
                <path d="M34.697,28.981 C32.964,28.981 31.553,27.571 31.553,25.837 C31.553,25.163 31.763,24.521 32.159,23.981 C32.324,23.757 32.638,23.712 32.858,23.874 C33.081,24.038 33.129,24.351 32.965,24.573 C32.694,24.941 32.552,25.378 32.552,25.838 C32.552,27.02 33.514,27.982 34.696,27.982 C35.878,27.982 36.839,27.02 36.839,25.838 C36.839,25.291 36.634,24.772 36.261,24.373 C36.073,24.171 36.083,23.854 36.284,23.666 C36.486,23.478 36.803,23.488 36.991,23.689 C37.538,24.273 37.839,25.037 37.839,25.837 C37.84,27.571 36.43,28.981 34.697,28.981 Z" id="Shape"></path>
                <path d="M25.48,25.203 C25.285,25.008 25.285,24.691 25.48,24.496 C26.608,23.368 31.488,23.286 33.533,23.312 C34.656,23.323 40.311,23.431 41.375,24.496 C41.57,24.691 41.57,25.008 41.375,25.203 C41.18,25.398 40.863,25.398 40.668,25.203 C40.334,24.868 37.832,24.354 33.523,24.312 C29.335,24.272 26.661,24.729 26.187,25.203 C26.09,25.301 25.578,25.301 25.48,25.203 Z" id="Shape"></path>
                <path d="M54.073,30.444 C50.691,30.444 47.505,25.928 47.153,25.414 C46.942,25.105 46.921,24.705 47.097,24.376 C47.448,23.724 50.622,18.004 54.073,18.004 C59.741,18.004 66.535,23.846 66.821,24.095 C67.073,24.314 67.199,24.643 67.158,24.974 C67.117,25.305 66.913,25.594 66.615,25.744 C65.658,26.225 57.173,30.444 54.073,30.444 Z M49.167,24.78 C50.183,26.094 52.352,28.444 54.073,28.444 C55.961,28.444 61.233,26.114 64.307,24.645 C62.199,23.043 57.715,20.003 54.073,20.003 C52.464,20.004 50.264,22.937 49.167,24.78 Z" id="Shape"></path>
                <path d="M55.303,28.981 C53.571,28.981 52.16,27.571 52.16,25.837 C52.16,25.036 52.461,24.273 53.008,23.689 C53.197,23.488 53.513,23.477 53.715,23.666 C53.916,23.854 53.927,24.171 53.738,24.373 C53.365,24.771 53.16,25.291 53.16,25.838 C53.16,27.02 54.121,27.982 55.303,27.982 C56.485,27.982 57.447,27.02 57.447,25.838 C57.447,25.378 57.304,24.942 57.034,24.573 C56.871,24.35 56.919,24.038 57.141,23.874 C57.362,23.712 57.675,23.758 57.84,23.981 C58.236,24.521 58.446,25.164 58.446,25.837 C58.446,27.571 57.036,28.981 55.303,28.981 Z" id="Shape"></path>
                <path d="M63.813,25.203 C63.339,24.728 60.661,24.274 56.477,24.312 C52.168,24.354 49.666,24.868 49.332,25.203 C49.137,25.398 48.82,25.398 48.625,25.203 C48.43,25.008 48.43,24.691 48.625,24.496 C49.688,23.432 55.344,23.323 56.467,23.312 C58.514,23.287 63.392,23.368 64.52,24.496 C64.715,24.691 64.715,25.008 64.52,25.203 C64.422,25.301 63.91,25.301 63.813,25.203 Z" id="Shape"></path>
                <path d="M15.759,36.905 C15.49,36.905 15.218,36.85 14.956,36.735 C11.416,35.181 9.071,33.914 7.789,32.861 C4.605,30.245 1.074,18.988 0.398,16.758 C0.191,16.076 0.363,15.336 0.848,14.815 C1.334,14.294 2.06,14.072 2.755,14.228 L18.718,17.854 C19.795,18.098 20.47,19.17 20.225,20.248 C19.981,21.325 18.913,22.002 17.831,21.755 L5.297,18.908 C7,23.867 9.114,28.773 10.327,29.77 C10.88,30.223 12.425,31.255 16.562,33.073 C17.574,33.516 18.034,34.697 17.589,35.708 C17.262,36.458 16.528,36.904 15.759,36.905 Z" id="Shape"></path>
                <path d="M20.063,22.438 C19.953,22.438 19.839,22.419 19.729,22.38 L17.942,21.747 C17.421,21.562 17.149,20.991 17.334,20.471 C17.517,19.95 18.089,19.678 18.61,19.863 L20.397,20.496 C20.918,20.681 21.19,21.252 21.005,21.772 C20.86,22.182 20.475,22.438 20.063,22.438 Z" id="Shape"></path>
                <path d="M74.165,36.938 C73.394,36.938 72.661,36.49 72.332,35.74 C71.889,34.728 72.35,33.549 73.361,33.105 C77.553,31.269 79.114,30.227 79.673,29.769 C80.884,28.773 82.998,23.87 84.701,18.912 L72.14,21.779 C71.061,22.026 69.991,21.35 69.744,20.274 C69.499,19.197 70.173,18.125 71.249,17.878 L87.242,14.228 C87.94,14.075 88.664,14.292 89.15,14.814 C89.636,15.336 89.808,16.076 89.601,16.758 C88.925,18.987 85.394,30.244 82.21,32.86 C80.917,33.922 78.548,35.2 74.966,36.769 C74.705,36.884 74.433,36.938 74.165,36.938 Z" id="Shape"></path>
                <path d="M70.031,22.438 C69.623,22.438 69.24,22.187 69.092,21.782 C68.903,21.263 69.169,20.689 69.688,20.499 L71.351,19.891 C71.868,19.703 72.445,19.968 72.634,20.487 C72.823,21.006 72.557,21.58 72.038,21.77 L70.375,22.378 C70.262,22.418 70.146,22.438 70.031,22.438 Z" id="Shape"></path>
                <path d="M31.374,49.24 C30.871,49.24 30.438,48.862 30.381,48.35 C30.36,48.162 29.873,43.695 30.384,39.868 C30.908,35.931 37.373,28.459 38.109,27.62 C38.473,27.204 39.104,27.165 39.52,27.527 C39.935,27.891 39.977,28.522 39.613,28.938 C37.725,31.092 32.744,37.303 32.367,40.131 C31.888,43.719 32.365,48.085 32.37,48.129 C32.431,48.678 32.035,49.172 31.486,49.233 C31.448,49.238 31.411,49.24 31.374,49.24 Z" id="Shape"></path>
                <path d="M58.64,49.24 C58.603,49.24 58.566,49.238 58.529,49.234 C57.98,49.172 57.585,48.678 57.645,48.13 C57.65,48.086 58.125,43.713 57.648,40.132 C57.271,37.305 52.23,31.097 50.319,28.944 C49.953,28.531 49.99,27.898 50.403,27.532 C50.814,27.166 51.448,27.202 51.815,27.616 C52.559,28.456 59.105,35.929 59.63,39.869 C60.141,43.696 59.653,48.163 59.633,48.351 C59.575,48.862 59.143,49.24 58.64,49.24 Z" id="Shape"></path>
                <path d="M61.586,41.412 C60.001,41.412 58.773,41.17 58.661,41.146 C58.12,41.037 57.771,40.509 57.881,39.968 C57.99,39.426 58.519,39.08 59.059,39.186 C60.499,39.475 64.615,39.812 66.343,37.91 C67.983,36.106 68.863,26.83 69.031,21.406 C69.05,20.854 69.51,20.373 70.062,20.438 C70.614,20.455 71.047,20.917 71.031,21.468 C70.983,22.979 70.494,36.317 67.823,39.255 C66.224,41.016 63.613,41.412 61.586,41.412 Z" id="Shape"></path>
                <path d="M28.175,41.412 C26.148,41.412 23.538,41.016 21.938,39.256 C19.258,36.309 19.075,22.958 19.063,21.445 C19.059,20.893 19.502,20.442 20.055,20.437 C20.058,20.437 20.06,20.437 20.063,20.437 C20.612,20.437 21.058,20.879 21.063,21.429 C21.107,26.847 21.785,36.114 23.418,37.909 C25.148,39.812 29.264,39.476 30.702,39.185 C31.242,39.082 31.771,39.426 31.88,39.967 C31.989,40.508 31.641,41.035 31.1,41.145 C30.987,41.17 29.759,41.412 28.175,41.412 Z" id="Shape"></path>
                <path d="M20.063,22.438 C19.782,22.438 19.501,22.319 19.303,22.088 C18.944,21.668 18.993,21.037 19.412,20.678 C19.687,20.443 26.197,14.898 30.892,13.142 C36.264,11.139 41.902,16.785 43.29,18.305 L46.708,18.305 C48.098,16.784 53.735,11.132 59.106,13.142 C63.798,14.896 70.396,20.439 70.674,20.673 C71.097,21.029 71.15,21.66 70.794,22.082 C70.437,22.503 69.808,22.559 69.385,22.202 C69.319,22.146 62.772,16.647 58.405,15.014 C53.67,13.246 47.979,19.882 47.922,19.95 C47.733,20.175 47.452,20.304 47.158,20.304 L42.84,20.304 C42.546,20.304 42.266,20.174 42.076,19.95 C42.018,19.883 36.33,13.248 31.593,15.014 C27.225,16.647 20.777,22.141 20.712,22.197 C20.524,22.358 20.293,22.438 20.063,22.438 Z" id="Shape"></path>
                <path d="M49.786,49.134 L40.225,49.134 C39.672,49.134 39.225,48.687 39.225,48.134 C39.225,47.581 39.672,47.134 40.225,47.134 L49.786,47.134 C50.339,47.134 50.786,47.581 50.786,48.134 C50.786,48.687 50.339,49.134 49.786,49.134 Z" id="Shape"></path>
            </g>
        </g>
    </g>
</svg>